<svg height="73" viewBox="0 0 73 73" width="73" xmlns="http://www.w3.org/2000/svg"><g fill="none" fill-rule="nonzero"><rect fill="#fff" height="71" rx="14" stroke="#a32d38" stroke-width="2" width="71" x="1" y="1"/><g transform="translate(12 11)"><ellipse cx="42.372881" cy="2.542373" fill="#ed6571" rx="6.779661" ry="2.542373"/><path d="m16.9491525 26.2711864h-1.6949152v-.8474576c0-1.4016949-1.140678-2.5423729-2.5423729-2.5423729h-2.5423729c-2.33644065 0-4.23728811-1.9008474-4.23728811-4.2372881v-1.6949153h1.69491525v1.6949153c0 1.4016949 1.14067797 2.5423729 2.54237286 2.5423729h2.5423729c2.3364407 0 4.2372881 1.9008474 4.2372881 4.2372881z" fill="#68607c"/><path d="m33.8983051 26.2711864h-1.6949153v-.8474576c0-2.3364407 1.9008475-4.2372881 4.2372882-4.2372881h2.5423728c1.401695 0 2.5423729-1.140678 2.5423729-2.5423729v-1.6949153h1.6949153v1.6949153c0 2.3364407-1.9008475 4.2372881-4.2372882 4.2372881h-2.5423728c-1.4016949 0-2.5423729 1.140678-2.5423729 2.5423729z" fill="#68607c"/><path d="m23.7288136 16.9491525h1.6949152v9.3220339h-1.6949152z" fill="#68607c"/><g fill="#ffe5ca"><path d="m49.1525424 11.0169492v4.2372881c0 1.4067796-3.0338983 2.5423729-6.779661 2.5423729-3.7457628 0-6.7796611-1.1355933-6.7796611-2.5423729v-4.2372881c0 1.4067796 3.0338983 2.5423728 6.7796611 2.5423728 3.7457627 0 6.779661-1.1355932 6.779661-2.5423728z"/><path d="m49.1525424 2.54237288v4.23728814c0 1.40677966-3.0338983 2.54237288-6.779661 2.54237288-3.7457628 0-6.7796611-1.13559322-6.7796611-2.54237288v-4.23728814c0 1.40677966 3.0338983 2.54237288 6.7796611 2.54237288 3.7457627 0 6.779661-1.13559322 6.779661-2.54237288z"/><path d="m49.1525424 6.77966102v4.23728818c0 1.4067796-3.0338983 2.5423728-6.779661 2.5423728-3.7457628 0-6.7796611-1.1355932-6.7796611-2.5423728v-4.23728818c0 1.40677966 3.0338983 2.54237288 6.7796611 2.54237288 3.7457627 0 6.779661-1.13559322 6.779661-2.54237288z"/><path d="m31.3559322 6.77966102v4.23728818c0 1.4067796-3.0338983 2.5423728-6.779661 2.5423728s-6.779661-1.1355932-6.779661-2.5423728v-4.23728818c0 1.40677966 3.0338983 2.54237288 6.779661 2.54237288s6.779661-1.13559322 6.779661-2.54237288z"/><path d="m31.3559322 11.0169492v4.2372881c0 1.4067796-3.0338983 2.5423729-6.779661 2.5423729s-6.779661-1.1355933-6.779661-2.5423729v-4.2372881c0 1.4067796 3.0338983 2.5423728 6.779661 2.5423728s6.779661-1.1355932 6.779661-2.5423728z"/><path d="m31.3559322 2.54237288v4.23728814c0 1.40677966-3.0338983 2.54237288-6.779661 2.54237288s-6.779661-1.13559322-6.779661-2.54237288v-4.23728814c0 1.40677966 3.0338983 2.54237288 6.779661 2.54237288s6.779661-1.13559322 6.779661-2.54237288z"/></g><ellipse cx="24.576271" cy="2.542373" fill="#ed6571" rx="6.779661" ry="2.542373"/><path d="m13.559322 11.0169492v4.2372881c0 1.4067796-3.0338983 2.5423729-6.77966098 2.5423729-3.74576271 0-6.77966102-1.1355933-6.77966102-2.5423729v-4.2372881c0 1.4067796 3.03389831 2.5423728 6.77966102 2.5423728 3.74576268 0 6.77966098-1.1355932 6.77966098-2.5423728z" fill="#ffe5ca"/><ellipse cx="6.779661" cy="2.542373" fill="#ed6571" rx="6.779661" ry="2.542373"/><path d="m13.559322 2.54237288v4.23728814c0 1.40677966-3.0338983 2.54237288-6.77966098 2.54237288-3.74576271 0-6.77966102-1.13559322-6.77966102-2.54237288v-4.23728814c0 1.40677966 3.03389831 2.54237288 6.77966102 2.54237288 3.74576268 0 6.77966098-1.13559322 6.77966098-2.54237288z" fill="#ffe5ca"/><path d="m13.559322 6.77966102v4.23728818c0 1.4067796-3.0338983 2.5423728-6.77966098 2.5423728-3.74576271 0-6.77966102-1.1355932-6.77966102-2.5423728v-4.23728818c0 1.40677966 3.03389831 2.54237288 6.77966102 2.54237288 3.74576268 0 6.77966098-1.13559322 6.77966098-2.54237288z" fill="#ffe5ca"/><path d="m40.6779661 30.5084746-13.559322 11.0169491v5.9322034l-5.0847458 3.3898305v-9.3220339l-13.55932203-11.0169491v-5.0847458h32.20338983z" fill="#f69489"/><g fill="#fac7a4" transform="translate(.847458 4.237288)"><path d="m.80254237 4.20254237c1.24322034.53983051 3.07711865.88220339 5.12966102.88220339 3.74576271 0 6.77966101-1.13559322 6.77966101-2.54237288v-2.54237288c0 2.16694915-5.19576271 3.94830508-11.90932203 4.20254237z"/><path d="m.80254237 8.43983051c1.24322034.53983051 3.07711865.88220339 5.12966102.88220339 3.74576271 0 6.77966101-1.13559322 6.77966101-2.54237288v-2.54237288c0 2.16694915-5.19576271 3.94830508-11.90932203 4.20254237z"/><path d="m.80254237 12.6771186c1.24322034.5398306 3.07711865.8822034 5.12966102.8822034 3.74576271 0 6.77966101-1.1355932 6.77966101-2.5423728v-2.54237293c0 2.16694913-5.19576271 3.94830513-11.90932203 4.20254233z"/><path d="m18.5991525 4.20254237c1.2432204.53983051 3.0771187.88220339 5.1296611.88220339 3.7457627 0 6.779661-1.13559322 6.779661-2.54237288v-2.54237288c0 2.16694915-5.1957627 3.94830508-11.9093221 4.20254237z"/><path d="m18.5991525 8.43983051c1.2432204.53983051 3.0771187.88220339 5.1296611.88220339 3.7457627 0 6.779661-1.13559322 6.779661-2.54237288v-2.54237288c0 2.16694915-5.1957627 3.94830508-11.9093221 4.20254237z"/><path d="m18.5991525 12.6771186c1.2432204.5398306 3.0771187.8822034 5.1296611.8822034 3.7457627 0 6.779661-1.1355932 6.779661-2.5423728v-2.54237293c0 2.16694913-5.1957627 3.94830513-11.9093221 4.20254233z"/><path d="m36.3957627 4.20254237c1.2432204.53983051 3.0771187.88220339 5.129661.88220339 3.7457627 0 6.779661-1.13559322 6.779661-2.54237288v-2.54237288c0 2.16694915-5.1957627 3.94830508-11.909322 4.20254237z"/><path d="m36.3957627 8.43983051c1.2432204.53983051 3.0771187.88220339 5.129661.88220339 3.7457627 0 6.779661-1.13559322 6.779661-2.54237288v-2.54237288c0 2.16694915-5.1957627 3.94830508-11.909322 4.20254237z"/><path d="m36.3957627 12.6771186c1.2432204.5398306 3.0771187.8822034 5.129661.8822034 3.7457627 0 6.779661-1.1355932 6.779661-2.5423728v-2.54237293c0 2.16694913-5.1957627 3.94830513-11.909322 4.20254233z"/></g><path d="m23.7288136 28.8135593h16.9491525v1.6949153h-16.9491525z" fill="#ed6571"/><path d="m20.3389831 28.8135593h1.6949152v1.6949153h-1.6949152z" fill="#ed6571"/><path d="m16.9491525 28.8135593h1.6949153v1.6949153h-1.6949153z" fill="#ed6571"/><path d="m13.559322 28.8135593h1.6949153v1.6949153h-1.6949153z" fill="#ed6571"/></g></g></svg>